HIERARCHY
ROOT Hips
{
	OFFSET 0.000000 0.000000 0.000000
	CHANNELS 6 Xposition Yposition Zposition Zrotation Yrotation Xrotation 
	JOINT LHipJoint
	{
		OFFSET 0.000000 0.000000 0.000000
		CHANNELS 3 Zrotation Yrotation Xrotation
		JOINT LeftUpLeg
		{
			OFFSET 1.363060 -1.794630 0.839290
			CHANNELS 3 Zrotation Yrotation Xrotation
			JOINT LeftLeg
			{
				OFFSET 2.448110 -6.726130 0.000000
				CHANNELS 3 Zrotation Yrotation Xrotation
				JOINT LeftFoot
				{
					OFFSET 2.562200 -7.039590 0.000000
					CHANNELS 3 Zrotation Yrotation Xrotation
					JOINT LeftToeBase
					{
						OFFSET 0.157640 -0.433110 2.322550
						CHANNELS 3 Zrotation Yrotation Xrotation
						End Site
						{
							OFFSET 0.000000 0.000000 0.000000
						}
					}
				}
			}
		}
	}
	JOINT RHipJoint
	{
		OFFSET 0.000000 0.000000 0.000000
		CHANNELS 3 Zrotation Yrotation Xrotation
		JOINT RightUpLeg
		{
			OFFSET -1.305520 -1.794630 0.839290
			CHANNELS 3 Zrotation Yrotation Xrotation
			JOINT RightLeg
			{
				OFFSET -2.542530 -6.985550 0.000000
				CHANNELS 3 Zrotation Yrotation Xrotation
				JOINT RightFoot
				{
					OFFSET -2.568260 -7.056230 0.000000
					CHANNELS 3 Zrotation Yrotation Xrotation
					JOINT RightToeBase
					{
						OFFSET -0.164730 -0.452590 2.363150
						CHANNELS 3 Zrotation Yrotation Xrotation
						End Site
						{
							OFFSET 0.000000 0.000000 0.000000
						}
					}
				}
			}
		}
	}
	JOINT LowerBack
	{
		OFFSET 0.000000 0.000000 0.000000
		CHANNELS 3 Zrotation Yrotation Xrotation
		JOINT Spine
		{
			OFFSET 0.028270 2.035590 -0.193380
			CHANNELS 3 Zrotation Yrotation Xrotation
			JOINT Spine1
			{
				OFFSET 0.056720 2.048850 -0.042750
				CHANNELS 3 Zrotation Yrotation Xrotation
				JOINT Neck
				{
					OFFSET 0.000000 0.000000 0.000000
					CHANNELS 3 Zrotation Yrotation Xrotation
					JOINT Neck1
					{
						OFFSET -0.054170 1.746240 0.172020
						CHANNELS 3 Zrotation Yrotation Xrotation
						JOINT Head
						{
							OFFSET 0.104070 1.761360 -0.123970
							CHANNELS 3 Zrotation Yrotation Xrotation
							End Site
							{
								OFFSET 0.000000 0.000000 0.000000
							}
						}
					}
				}
				JOINT LeftShoulder
				{
					OFFSET 0.000000 0.000000 0.000000
					CHANNELS 3 Zrotation Yrotation Xrotation
					JOINT LeftArm
					{
						OFFSET 3.362410 1.200890 -0.311210
						CHANNELS 3 Zrotation Yrotation Xrotation
						JOINT LeftForeArm
						{
							OFFSET 4.983000 -0.000000 -0.000000
							CHANNELS 3 Zrotation Yrotation Xrotation
							JOINT LeftHand
							{
								OFFSET 3.483560 -0.000000 -0.000000
								CHANNELS 3 Zrotation Yrotation Xrotation
								JOINT LeftFingerBase
								{
									OFFSET 0.000000 0.000000 0.000000
									CHANNELS 3 Zrotation Yrotation Xrotation
									JOINT LeftHandIndex1
									{
										OFFSET 0.715260 -0.000000 -0.000000
										CHANNELS 3 Zrotation Yrotation Xrotation
										End Site
										{
											OFFSET 0.000000 0.000000 0.000000
										}
									}
								}
								JOINT LThumb
								{
									OFFSET 0.000000 0.000000 0.000000
									CHANNELS 3 Zrotation Yrotation Xrotation
									End Site
									{
										OFFSET 0.000000 0.000000 0.000000
									}
								}
							}
						}
					}
				}
				JOINT RightShoulder
				{
					OFFSET 0.000000 0.000000 0.000000
					CHANNELS 3 Zrotation Yrotation Xrotation
					JOINT RightArm
					{
						OFFSET -3.136600 1.374050 -0.404650
						CHANNELS 3 Zrotation Yrotation Xrotation
						JOINT RightForeArm
						{
							OFFSET -5.241900 -0.000000 -0.000000
							CHANNELS 3 Zrotation Yrotation Xrotation
							JOINT RightHand
							{
								OFFSET -3.444170 -0.000000 -0.000000
								CHANNELS 3 Zrotation Yrotation Xrotation
								JOINT RightFingerBase
								{
									OFFSET 0.000000 0.000000 0.000000
									CHANNELS 3 Zrotation Yrotation Xrotation
									JOINT RightHandIndex1
									{
										OFFSET -0.622530 -0.000000 -0.000000
										CHANNELS 3 Zrotation Yrotation Xrotation
										End Site
										{
											OFFSET 0.000000 0.000000 0.000000
										}
									}
								}
								JOINT RThumb
								{
									OFFSET 0.000000 0.000000 0.000000
									CHANNELS 3 Zrotation Yrotation Xrotation
									End Site
									{
										OFFSET 0.000000 0.000000 0.000000
									}
								}
							}
						}
					}
				}
			}
		}
	}
}
MOTION
Frames: 5
Frame Time: 0.008333
12.917397 16.896215 1.652615 -170.964457 -89.551581 -154.012064 -9.609653 -0.343684 2.198351 -8.078492 -2.320318 -46.842020 -2.220346 -0.191351 21.822182 3.552722 13.780486 -16.019472 -1.492000 0.000000 -40.601899 7.821006 0.443025 2.089315 8.394408 4.215590 -44.092867 2.655337 0.079246 23.265996 -3.567655 -9.393985 -19.479726 1.571000 0.000000 -55.923900 2.386048 -1.866208 -2.181988 0.102924 -2.074492 -3.458872 -4.718605 -2.193225 0.431859 8.864875 -16.618891 -14.800558 -0.515783 0.105472 -2.284387 0.000000 0.000000 0.000000 4.312989 10.000102 2.594462 -68.897484 28.858796 27.758042 -1.342376 -59.769247 -0.009048 10.908217 0.677337 0.062437 -0.199235 0.048225 -0.000000 0.000000 0.000000 0.000000 0.000000 0.000000 0.000000 4.874000 -12.211980 3.806900 72.333661 -21.202597 11.559342 2.362350 45.485898 0.013776 -8.437052 9.439052 -0.721716 0.185456 -0.128299 0.000000 0.000000 0.000000 0.000000 0.000000 0.000000 0.000000 
12.913915 16.819394 1.651364 -161.546426 -89.454235 -162.419739 -9.295960 -0.307899 2.176725 -8.302100 -2.644055 -48.999339 -2.279077 0.000618 24.035576 3.675590 13.748581 -17.238986 -1.799400 -0.000000 -41.006100 8.033558 0.627878 2.211564 8.016191 4.754003 -46.890764 2.580412 -0.331178 26.510370 -3.544826 -8.861519 -20.559684 1.724200 0.000001 -55.826299 2.360784 -1.869231 -2.191799 0.098488 -2.072175 -3.479063 -4.686987 -2.194768 0.375318 8.936836 -16.501545 -14.916731 -0.497743 0.110613 -2.341542 0.000000 0.000000 0.000000 4.437376 9.879350 2.694832 -69.524225 29.225684 26.199816 -1.333878 -59.839809 -0.010368 11.427979 0.404502 0.036555 -0.204657 0.057477 -0.000000 0.000000 0.000000 0.000000 0.000000 0.000000 0.000000 4.893818 -12.049541 3.896060 72.401911 -21.799332 11.311800 2.330775 45.741391 0.013526 -8.363537 9.510716 -0.720927 0.183958 -0.130913 0.000000 0.000000 0.000000 0.000000 0.000000 0.000000 0.000000 
12.909907 16.729800 1.648532 -148.646984 -89.562583 -174.277815 -8.948769 -0.311322 2.155807 -8.546136 -3.041451 -51.292850 -2.328235 0.195144 26.478710 3.796461 13.642160 -18.579516 -2.140100 -0.000000 -41.299300 8.287722 0.767085 2.378209 7.583527 5.232248 -49.790630 2.505275 -0.777282 29.778106 -3.503769 -8.288043 -21.653952 1.851900 0.000000 -55.608700 2.385819 -1.927825 -2.256937 0.111212 -2.129983 -3.506662 -4.657647 -2.257349 0.334690 9.021055 -16.369509 -15.029223 -0.486575 0.114964 -2.397327 0.000000 0.000000 0.000000 4.587541 9.743429 2.803298 -70.212936 29.456826 24.593706 -1.328220 -59.780390 -0.011847 11.991073 0.083667 0.002974 -0.210336 0.067561 -0.000000 0.000000 0.000000 0.000000 0.000000 0.000000 0.000000 4.947857 -11.907677 3.974352 72.510097 -22.312072 10.934061 2.299431 45.878225 0.013185 -8.312003 9.577071 -0.721641 0.182269 -0.133439 0.000000 0.000000 0.000000 0.000000 0.000000 0.000000 0.000000 
12.905198 16.626529 1.644634 -133.950395 -89.904379 172.093747 -8.685208 -0.398035 2.154374 -8.840715 -3.560996 -53.712877 -2.359280 0.402135 29.141177 3.916345 13.483438 -20.020396 -2.507000 0.000000 -41.420600 8.472294 0.817676 2.570732 7.058430 5.598708 -52.785055 2.429339 -1.249358 33.075271 -3.450232 -7.682333 -22.772709 1.956000 -0.000000 -55.238600 2.324926 -2.055680 -2.384351 0.112030 -2.256075 -3.545655 -4.623829 -2.389263 0.302402 9.107162 -16.207141 -15.129436 -0.485716 0.118095 -2.448754 0.000000 0.000000 0.000000 4.743919 9.547035 2.917943 -70.956588 29.595297 22.893415 -1.326377 -59.620853 -0.013419 12.562797 -0.282745 -0.039109 -0.215971 0.078208 -0.000000 0.000000 0.000000 0.000000 0.000000 0.000000 0.000000 5.037059 -11.775032 4.045045 72.681154 -22.776303 10.356467 2.267439 45.909782 0.012709 -8.270958 9.637283 -0.722659 0.180181 -0.136104 0.000000 0.000000 0.000000 0.000000 0.000000 0.000000 0.000000 
12.899433 16.508771 1.640149 59.073488 -89.669538 -19.831737 -8.544129 -0.508937 2.202915 -9.170542 -4.189378 -56.278363 -2.373820 0.653709 31.990199 4.040686 13.316179 -21.543460 -2.890400 -0.000000 -41.331500 8.550862 0.840386 2.762597 6.448000 5.872633 -55.850184 2.339046 -1.711008 36.425676 -3.388090 -7.044505 -23.909997 2.040100 0.000000 -54.705400 2.098024 -2.199223 -2.578498 0.075008 -2.393030 -3.597667 -4.584666 -2.532289 0.280526 9.194182 -16.026085 -15.221694 -0.493280 0.120323 -2.496780 0.000000 0.000000 0.000000 4.899546 9.332461 3.033207 -71.738378 29.626280 21.112614 -1.327381 -59.355961 -0.015011 13.124083 -0.686166 -0.089298 -0.221126 0.088985 -0.000000 0.000000 0.000000 0.000000 0.000000 0.000000 0.000000 5.157793 -11.636993 4.112398 72.918959 -23.180221 9.570302 2.236740 45.841858 0.012106 -8.241905 9.688551 -0.723978 0.177984 -0.139112 0.000000 0.000000 0.000000 0.000000 0.000000 0.000000 0.000000 
